inDegrees=no
num_controls=7
num_derivatives=13
num_iterations=144
num_multipliers=7
num_parameters=0
num_slacks=7
num_states=26
objective=4.947123
objective_accelerations=0.698411
objective_balance=0.074280
objective_effort=0.674152
objective_height=3.446549
objective_ligament=0.053731
solver_duration=1437.002931
status=Solve_Succeeded
success=true
DataType=double
version=3
OpenSimVersion=4.4-2022-07-23-0e9fedc
endheader
time	/jointset/ground_pelvis/pelvis_tilt/value	/jointset/ground_pelvis/pelvis_tx/value	/jointset/ground_pelvis/pelvis_ty/value	/jointset/hip_l/hip_flexion_l/value	/jointset/hip_l/hip_adduction_l/value	/jointset/hip_l/hip_rotation_l/value	/jointset/back/lumbar_extension/value	/jointset/patellofemoral_l/patellar_flexion_l/value	/jointset/knee_l/knee_flexion_l/value	/jointset/knee_l/knee_adduction_l/value	/jointset/knee_l/knee_rotation_l/value	/jointset/ankle_l/ankle_angle_l/value	/jointset/subtalar_l/subtalar_angle_l/value	/jointset/ground_pelvis/pelvis_tilt/speed	/jointset/ground_pelvis/pelvis_tx/speed	/jointset/ground_pelvis/pelvis_ty/speed	/jointset/hip_l/hip_flexion_l/speed	/jointset/hip_l/hip_adduction_l/speed	/jointset/hip_l/hip_rotation_l/speed	/jointset/back/lumbar_extension/speed	/jointset/patellofemoral_l/patellar_flexion_l/speed	/jointset/knee_l/knee_flexion_l/speed	/jointset/knee_l/knee_adduction_l/speed	/jointset/knee_l/knee_rotation_l/speed	/jointset/ankle_l/ankle_angle_l/speed	/jointset/subtalar_l/subtalar_angle_l/speed	/forceset/tau_hip_flexion_l	/forceset/tau_hip_adduction_l	/forceset/tau_hip_rotation_l	/forceset/tau_knee_flexion_l	/forceset/tau_ankle_angle_l	/forceset/tau_subtalar_angle_l	/forceset/tau_lumbar_extension	lambda_cid13_p0	lambda_cid13_p1	lambda_cid13_p2	lambda_cid13_p3	lambda_cid13_p4	lambda_cid13_p5	lambda_cid14_p0	/jointset/ground_pelvis/pelvis_tilt/accel	/jointset/ground_pelvis/pelvis_tx/accel	/jointset/ground_pelvis/pelvis_ty/accel	/jointset/hip_l/hip_flexion_l/accel	/jointset/hip_l/hip_adduction_l/accel	/jointset/hip_l/hip_rotation_l/accel	/jointset/back/lumbar_extension/accel	/jointset/patellofemoral_l/patellar_flexion_l/accel	/jointset/knee_l/knee_flexion_l/accel	/jointset/knee_l/knee_adduction_l/accel	/jointset/knee_l/knee_rotation_l/accel	/jointset/ankle_l/ankle_angle_l/accel	/jointset/subtalar_l/subtalar_angle_l/accel	gamma_cid13_p0	gamma_cid13_p1	gamma_cid13_p2	gamma_cid13_p3	gamma_cid13_p4	gamma_cid13_p5	gamma_cid14_p0
1.5	-0.06109407806770106	-0.04781989130194815	0.7427799159409574	1.110309235733856	-0.3097927892621264	-0.07289055129767516	-0.8509854331390652	1.211746732172376	1.211746732172356	0.03138675193381477	-0.1745309035096521	0.2582608742299518	0.08226629373907955	0.4192661383185353	0.2113197846296715	0.9014712903390292	-3.085356508061625	0.04914199242483874	-0.6378064788859515	0.7518828865209825	-3.032207630684324	-3.032207630684321	-0.4779561309273264	1.073141142047452e-05	-0.5556287165642855	-0.1786563948847807	-0.2719501594931557	0.01495193433976963	-0.01939570415823004	-0.2989360730160778	0.07215788861888012	0.05076115791076012	0.3379025997349228	-17.26053255549944	-17.63795423396133	0.7751792902032996	-17.35893513371563	-668.4971785669412	-71.04380331515641	-0.7757689183437433	1.035790638342227	1.268704254640957	-0.9028188062758684	-1.572819951924722	0.3672234519204239	-0.7885871036838713	2.962270027503947	-2.420562152846955	-2.420562152846949	-0.2931116009492998	0.08559715582679329	-2.032784989440031	-0.2857882765113569	5.643798765652715e-07	3.809710045982973e-06	-1.388197266560613e-06	4.837075529132686e-07	6.744401483600055e-07	4.077801914349838e-07	6.928187180444634e-07
1.51	-0.05685029087617608	-0.04564323570244692	0.7517473246643558	1.079379543781933	-0.3092852312043484	-0.07930940837246041	-0.8433194355708267	1.181307057928872	1.181307057928905	0.02659052951599054	-0.1745308864200718	0.2526040944890279	0.08046323007236844	0.4293675656919971	0.2240071554345809	0.891785492282412	-3.100223043348801	0.05236787834333754	-0.6459572482780678	0.781283281574789	-3.055325917676293	-3.055325917676288	-0.4812710101450314	3.812676776948512e-07	-0.5755443336817273	-0.1818598106084407	-0.2619126717031998	0.01506832263888147	-0.01862875784610632	-0.2908279282453087	0.07259882309916185	0.05080766222598503	0.3278564274984775	-16.5042556123243	-17.97005334124087	1.033138486181762	-17.55851327918582	-658.5112757054795	-71.00466428879297	-1.277068801986212	0.9788167519471885	1.268221476880957	-1.035050615617669	-1.389682529324182	0.2998980235438314	-0.826370628327025	2.923922411464898	-2.197418262012053	-2.197418262011879	-0.3473239717079757	-0.04345740200080606	-1.943302464540037	-0.3236279596448075	6.186801239741959e-07	4.101620053024251e-06	-1.54230644218907e-06	4.778245617226375e-07	7.375045777258054e-07	5.711537409526518e-07	7.349823723216324e-07
1.52	-0.05250918981789839	-0.04333981279820419	0.7606111573451354	1.048311964034696	-0.3087454889150363	-0.08580938289544411	-0.835360434418621	1.150648209557522	1.150648209557606	0.02176182872806556	-0.174530794092441	0.2467536880986004	0.07863093030055068	0.4387289116694388	0.2366732455779743	0.8807560818152702	-3.112934067124385	0.055578838731002	-0.6540299685242453	0.8104836033144509	-3.076042456253871	-3.076042456253866	-0.4844518049438053	2.577902289382322e-05	-0.5943540464649195	-0.1845036159061595	-0.2518751839132451	0.01518471093798915	-0.01786181153404921	-0.2827197834745427	0.07303975757944485	0.05085416654120634	0.3178102552620325	-15.74498008675822	-18.31687964067915	1.309667895107699	-17.8277607544765	-648.4897185148949	-71.06284081293508	-1.897948305938881	0.8877743591381194	1.264448122337753	-1.171541288380789	-1.141717649606091	0.3642383457535441	-0.772977274496172	2.922255364674905	-1.94021246996906	-1.940212469969075	-0.2662947171631013	0.09274673561852444	-1.811604122590081	-0.1738661913231345	6.706839906512777e-07	4.439348020394884e-06	-1.651436600807254e-06	4.791966101289338e-07	8.06456578155893e-07	7.71532657644499e-07	7.760385799495525e-07
1.53	-0.04807814967738527	-0.04090995265049185	0.7693581027700472	1.017127887952561	-0.3081738503310965	-0.09239008341264483	-0.8271108698792692	1.119794267214085	1.119794267214109	0.01690183749989524	-0.174530680139253	0.24072081609494	0.07677484754605375	0.4473453232520415	0.2492817419405602	0.8684164217306182	-3.123502552848675	0.05874917082686167	-0.6620954572383685	0.8393665439681173	-3.09431755417551	-3.094317554175507	-0.4875350010317998	6.503922133532746e-06	-0.6120201116389684	-0.1866120755454839	-0.2416241880379509	0.01505051506885044	-0.01712709345202236	-0.2749393714869455	0.0735348849440173	0.05059976864087058	0.3074876770677128	-15.00426129315189	-18.51429760658289	1.544698576356033	-17.91581963229291	-638.6281787171034	-70.8916098722128	-2.633868160336814	0.8285613098936847	1.256592717393953	-1.297481198620086	-0.9575629860248827	0.2932942293471745	-0.8202482824303042	2.86189932747749	-1.707057168184231	-1.707057168184768	-0.3267601571828285	-0.04811713752179937	-1.713823342431008	-0.2148061824815986	7.202479528007769e-07	4.825757570615456e-06	-1.712776553852024e-06	4.882771381069652e-07	8.816641228417864e-07	1.011229776958911e-06	8.159181255126454e-07
